<?xml version="1.0" encoding="utf-8"?>
<!-- Generator: Adobe Illustrator 18.1.1, SVG Export Plug-In . SVG Version: 6.00 Build 0)  -->
<svg version="1.1" id="Capa_1" xmlns="http://www.w3.org/2000/svg" xmlns:xlink="http://www.w3.org/1999/xlink" x="0px" y="0px"
	 viewBox="0 0 1200 506" enable-background="new 0 0 1200 506" xml:space="preserve">
<path opacity="0.6" fill="#6B100E" d="M295,153h-70.2c-2.8,0-5.1-2.3-5.1-5.1v-44.4c0-2.8,2.3-5.1,5.1-5.1H295
	c2.8,0,5.1,2.3,5.1,5.1v44.4C300.1,150.8,297.8,153,295,153z"/>
<rect x="797.4" y="144.9" opacity="0.5" fill="#FF574A" width="71.9" height="95.3"/>
<polygon fill="#FF574A" points="335.1,139.5 478.3,139.5 478.3,390.7 334.1,390.7 334.1,141 "/>
<path fill="#9E180E" d="M746.6,272.3h-26.7c-4.1,0-7.4-3.3-7.4-7.4v-61.1c0-4.1,3.3-7.4,7.4-7.4h26.7c4.1,0,7.4,3.3,7.4,7.4v61.1
	C754.1,269,750.7,272.3,746.6,272.3z"/>
<rect x="715" y="204.5" fill="#6B100E" width="35.9" height="57.2"/>
<g>
	<circle fill="#6B100E" cx="727.5" cy="200.8" r="0.8"/>
	<path fill="#6B100E" d="M738.7,201.3h-8.8c-0.3,0-0.6-0.3-0.6-0.6l0,0c0-0.3,0.3-0.6,0.6-0.6h8.8c0.3,0,0.6,0.3,0.6,0.6l0,0
		C739.3,201.1,739,201.3,738.7,201.3z"/>
</g>
<path fill="#FF574A" d="M732.9,218.2L732.9,218.2c-1.8,0-3.3-1.5-3.3-3.3l0,0c0-1.8,1.5-3.3,3.3-3.3l0,0c1.8,0,3.3,1.5,3.3,3.3l0,0
	C736.2,216.7,734.7,218.2,732.9,218.2z"/>
<rect x="719.3" y="222.1" fill="#FF574A" width="27.6" height="6.7"/>
<rect x="719.3" y="232.7" fill="#FF574A" width="27.6" height="22"/>
<path fill="#FF574A" d="M972.3,151.9c7.6-1.6,10.1-4.1,11.7-11.7c0.3-1.2,2-1.2,2.2,0c1.6,7.6,4.1,10.1,11.7,11.7
	c1.2,0.3,1.2,2,0,2.2c-7.6,1.6-10.1,4.1-11.7,11.7c-0.3,1.2-2,1.2-2.2,0c-1.6-7.6-4.1-10.1-11.7-11.7
	C971.1,153.9,971.1,152.2,972.3,151.9z"/>
<circle fill="none" stroke="#9E180E" stroke-width="1.7972" stroke-miterlimit="10" cx="735.7" cy="113.2" r="10.3"/>
<circle fill="none" stroke="#9E180E" stroke-width="1.7972" stroke-miterlimit="10" cx="73.7" cy="200.2" r="10.3"/>
<path fill="#6B100E" d="M1.1,264.9c10.2-2.1,13.5-5.5,15.6-15.6c0.3-1.6,2.6-1.6,3,0c2.1,10.2,5.5,13.5,15.6,15.6
	c1.6,0.3,1.6,2.6,0,3c-10.2,2.1-13.5,5.5-15.6,15.6c-0.3,1.6-2.6,1.6-3,0c-2.1-10.2-5.5-13.5-15.6-15.6
	C-0.5,267.6-0.5,265.3,1.1,264.9z"/>
<circle fill="#FF574A" cx="238.1" cy="387.4" r="5.4"/>
<circle fill="#9E180E" cx="1189.4" cy="240.2" r="7.7"/>
<circle fill="#FF574A" cx="1103.5" cy="217.3" r="5.4"/>
<circle fill="#FF574A" cx="84" cy="313.4" r="5.4"/>
<circle fill="#9E180E" cx="797.4" cy="305.8" r="7.7"/>
<circle fill="#FF574A" cx="842" cy="276.3" r="5.4"/>
<rect x="800.6" y="139.5" opacity="0.5" fill="#FF574A" width="71.9" height="95.3"/>
<path fill="#FF574A" d="M786,127v95h55.5l16.5-16.9V127H786z M791.5,201.2c-1.3,0-2.4-1.1-2.4-2.4c0-1.3,1.1-2.4,2.4-2.4
	c1.3,0,2.4,1.1,2.4,2.4C793.9,200.2,792.8,201.2,791.5,201.2z M791.5,181.5c-1.3,0-2.4-1.1-2.4-2.4s1.1-2.4,2.4-2.4
	c1.3,0,2.4,1.1,2.4,2.4S792.8,181.5,791.5,181.5z M791.5,161.7c-1.3,0-2.4-1.1-2.4-2.4s1.1-2.4,2.4-2.4c1.3,0,2.4,1.1,2.4,2.4
	S792.8,161.7,791.5,161.7z M791.5,141.9c-1.3,0-2.4-1.1-2.4-2.4c0-1.3,1.1-2.4,2.4-2.4c1.3,0,2.4,1.1,2.4,2.4
	C793.9,140.9,792.8,141.9,791.5,141.9z"/>
<polygon fill="#E54C45" points="842,205.1 858.2,205.1 842,221.3 "/>
<path fill="#6B100E" d="M285.1,147.7h-70.2c-2.8,0-5.1-2.3-5.1-5.1V98.2c0-2.8,2.3-5.1,5.1-5.1h70.2c2.8,0,5.1,2.3,5.1,5.1v44.4
	C290.2,145.5,287.9,147.7,285.1,147.7z"/>
<polyline fill="none" stroke="#FF574A" stroke-width="1.139" stroke-miterlimit="10" points="217.8,99.9 221.7,103.9 217.8,107.9 
	"/>
<g>
	<path fill="#9E180E" d="M1060.9,314.6H899.6V214.5c0-3.8,3.1-7,7-7l147.5,1c3.8,0,7,3.1,7,7V314.6z"/>
	<rect x="909.1" y="220.8" fill="#6B100E" width="142.2" height="82.9"/>
	<path fill="#FF574A" d="M1010,287.7h-65.3c-2.8,0-5.1-2.3-5.1-5.1v-41.2c0-2.8,2.3-5.1,5.1-5.1h65.3c2.8,0,5.1,2.3,5.1,5.1v41.2
		C1015.1,285.4,1012.8,287.7,1010,287.7z"/>
	<path fill="#6B100E" d="M1080.9,325.3H879.6c-1.1,0-1.9-0.9-1.9-1.9v-6.9c0-1.1,0.9-1.9,1.9-1.9h201.3c1.1,0,1.9,0.9,1.9,1.9v6.9
		C1082.8,324.5,1081.9,325.3,1080.9,325.3z"/>
	<rect x="1038" y="320" fill="#9E180E" width="20.7" height="0.9"/>
</g>
<rect x="149.7" y="190.1" opacity="0.5" fill="#FF574A" width="107.4" height="158.5"/>
<rect x="492.6" y="80.7" opacity="0.5" fill="#FF574A" width="107.4" height="250.1"/>
<path fill="#FF574A" d="M130,166v159h108V166H130z M143.5,294.8c-3.5,0-6.3-2.8-6.3-6.3s2.8-6.3,6.3-6.3s6.3,2.8,6.3,6.3
	S147,294.8,143.5,294.8z M143.5,269.6c-3.5,0-6.3-2.8-6.3-6.3s2.8-6.3,6.3-6.3s6.3,2.8,6.3,6.3S147,269.6,143.5,269.6z M143.5,244.5
	c-3.5,0-6.3-2.8-6.3-6.3c0-3.5,2.8-6.3,6.3-6.3s6.3,2.8,6.3,6.3C149.8,241.6,147,244.5,143.5,244.5z M143.5,219.3
	c-3.5,0-6.3-2.8-6.3-6.3s2.8-6.3,6.3-6.3s6.3,2.8,6.3,6.3S147,219.3,143.5,219.3z M143.5,194.1c-3.5,0-6.3-2.8-6.3-6.3
	s2.8-6.3,6.3-6.3s6.3,2.8,6.3,6.3S147,194.1,143.5,194.1z"/>
<text transform="matrix(1 0 0 1 167.1675 237.4834)" opacity="0.53" fill="#FFFFFF" font-family="'MaterialIcons-Regular'" font-size="40.4378">person</text>
<rect x="160.6" y="241.3" fill="#FFFFFF" width="54" height="6.1"/>
<rect x="160.6" y="260.2" opacity="0.55" fill="#FFFFFF" width="42.8" height="3"/>
<rect x="160.6" y="266.2" opacity="0.55" fill="#FFFFFF" width="52.6" height="3"/>
<rect x="160.6" y="272.1" opacity="0.55" fill="#FFFFFF" width="36.6" height="3"/>
<rect x="160.6" y="278.1" opacity="0.55" fill="#FFFFFF" width="49.3" height="3"/>
<g>
	<path fill="#FF3939" d="M546,106.9c-20,0-37.6,16.9-37.6,37.8s17,37.5,37.9,37.5c20.9,0,37.9-17.2,37.9-38.2H546V106.9z"/>
	<path opacity="0.56" fill="#FF3939" d="M553,113.2V138h24.9C577.9,125,566,113.2,553,113.2z"/>
</g>
<g>
	<path opacity="0.72" fill="#FF3939" d="M546,291.1c21,0,38-16.9,38-37.8s-16.8-38-37.7-38c-20.9,0-37.7,17.7-37.7,37.7H546V291.1z"
		/>
	<path opacity="0.56" fill="#FF3939" d="M540,284.8V260h-25C515,273,527,284.8,540,284.8z"/>
</g>
<polygon fill="#A52923" points="335.1,390.4 309.1,393.4 309.1,179.3 335.1,139.5 "/>
<circle fill="#A52923" cx="357.9" cy="187" r="6"/>
<rect x="376.5" y="178.2" fill="#A52923" width="94.7" height="6"/>
<rect x="376.5" y="189.9" fill="#A52923" width="94.7" height="6"/>
<path fill="#A52923" d="M363.8,360.9h-11.7c-0.1,0-0.1-0.1-0.1-0.1V349c0-0.1,0.1-0.1,0.1-0.1h11.7c0.1,0,0.1,0.1,0.1,0.1v11.7
	C363.9,360.8,363.9,360.9,363.8,360.9z"/>
<rect x="351.9" y="239.1" opacity="0.21" fill="#FFFFFF" width="19.5" height="60.4"/>
<rect x="383.7" y="239.1" opacity="9.000000e-02" fill="#FFFFFF" width="19.5" height="60.4"/>
<rect x="415.5" y="239.1" opacity="0.21" fill="#FFFFFF" width="19.5" height="60.4"/>
<rect x="447.2" y="239.1" opacity="9.000000e-02" fill="#FFFFFF" width="19.5" height="60.4"/>
<circle fill="#A52923" cx="456.9" cy="322.4" r="6.6"/>
<circle fill="#A52923" cx="425.5" cy="322.4" r="6.6"/>
<rect x="568.1" y="104.5" fill="#FF574A" width="67.4" height="67.4"/>
<rect x="509.1" y="307.9" fill="#FF574A" width="42.2" height="42.2"/>
<g>
	<rect x="576" y="130.1" fill="#FF3939" width="9.1" height="25.9"/>
	<rect x="590.2" y="123" fill="#F2F2F2" width="9.1" height="32.9"/>
	<rect x="604.4" y="139.5" opacity="0.56" fill="#FF3939" width="9.1" height="16.5"/>
	<rect x="618.6" y="120.4" fill="#FF3939" width="9.1" height="35.6"/>
</g>
<g>
	<path fill="#6B100E" d="M823,189.5c8,0,15.4-6.9,15.4-15.3c0-8.5-6.8-15.4-15.3-15.4c-8.5,0-15.3,7.2-15.3,15.2H823V189.5z"/>
	<path opacity="0.56" fill="#6B100E" d="M820,187v-10h-9.6C810.4,182,815,187,820,187z"/>
</g>
<g opacity="0.6">
	<g>
		<path fill="#6B100E" d="M378.5,104.8c-4.3-1.2,5.2-24.7,6.3-27.1c3.1-6.4,7.5-14.2,14.9-16.1c10.1-2.7,17.8,7.5,20.5,15.9
			c2.6,7.9,2.7,18.4-2.5,25.3c-5.8,7.6-16.4,7.5-24,3c-3.6-2.1-10.8-7.4-9.3-12.5c1.6-5.2,10.1-4.3,14.3-3.7
			c12.4,1.8,26.4,9.1,37.5-0.4c0.5-0.4,0.4-1.1,0-1.5c-4.1-4.6-9.9-5.9-15.8-6.7c-9.4-1.3-18.9-2.4-28.4-3.6c-8.3-1-16.7-2.7-25-2.8
			c-5.2-0.1-12.3,1.1-15.2,6.1c-6.4,11.2,18.4,17.4,25,18.8c16.2,3.6,32.9,3.6,48.8,8.5c1.1,0.4,1.9-1.4,0.8-1.9
			c-12.5-6.4-18.4-21.7-13.5-34.9c-0.6,0.1-1.3,0.2-1.9,0.3c5.5,7.8-5.6,17.6-10.8,22.5c-3,2.8-6.2,5.5-9.6,7.9
			c-1.4,1-2.8,1.9-4.2,2.9c-0.7,0.5-1.4,0.9-2.2,1.3c-2.4,1.5-1.9,1.4-5.3,0.2c-3.7-1.3-3.3-0.7-2.7-4.1c0.1-0.7,0.3-1.5,0.5-2.2
			c0.4-1.5,0.8-2.9,1.3-4.4c1.3-3.8,3-7.4,5.1-10.7c4-6.6,9.4-12.3,15.7-16.7c1.2-0.8,2.5-1.7,3.8-2.4c0.8-0.4,2.1-1.2,3-1.2
			c1,0.5,1.9,1,2.9,1.5c2.5,0.3,3.6,1.6,3.3,4c0.3,4.1-1.4,8-3.6,11.3c-4.6,6.9-11.3,12.6-17.1,18.4c-3,3-6,6-8.9,9
			c-1.7,1.7-4.7,3.8-5.3,6.2c-1,3.9,3.3,6.3,6.5,6.6c6.1,0.6,11.7-3.4,15.2-8.1c2.5-3.5,4.6-10.1-1.4-11.1c-1.3-0.2-1.9,1.8-0.6,2.1
			c5.3,0.9,0.8,7.2-0.5,8.8c-0.6,0.8-1.4,1.5-2.1,2.2c-1.8,1.6-4.1,3.1-6.5,3.7c-0.9,0.2-2.3,0.6-3.3,0.4c-1.3-1.9-2.6-3.9-3.9-5.8
			c0.5-0.5,0.9-0.9,1.4-1.4c1.2-2,3.8-3.8,5.5-5.5c6.7-6.7,13.9-13.2,19.9-20.4c4-4.8,7.6-10.6,6.8-17.1c-0.6-4.9-3.8-8-8.8-6.8
			c-6.1,1.5-12,7-16.2,11.4c-5,5.2-9,11.3-11.7,18c-1.7,4.2-5.4,12.2-2.6,16.7c3.2,5.2,10.3-0.3,13.6-2.5c7.6-5,14.7-11,20.6-18
			c4.1-4.8,8.3-11.7,4.1-17.7c-0.5-0.8-1.6-0.6-1.9,0.3c-5.2,14,1.2,30.4,14.5,37.3c0.3-0.6,0.5-1.3,0.8-1.9
			c-11.7-3.7-23.9-4.7-36-6.3c-6.4-0.9-12.9-2-19.1-3.9c-4.6-1.4-21-6.3-17.4-14.1c2.9-6.3,14-5.2,19.5-4.5
			c6.9,0.8,13.9,1.7,20.8,2.6c7.1,0.9,14.1,1.8,21.2,2.7c6.9,0.9,14.6,1.2,19.5,6.7c0-0.5,0-1,0-1.5c-8.7,7.4-20.4,3.2-30.2,0.8
			c-5.9-1.4-15.6-3.6-20.5,1.3c-4.8,4.9,0.6,11.5,4.5,14.8c5.3,4.4,12.2,7.1,19.1,6.1c16.2-2.4,18.9-21.7,14.4-34.7
			c-4.4-12.5-17.8-23.2-29.9-12.6c-6.7,5.8-10.4,15-13.2,23.2c-1.6,4.8-3.3,10.3-3.5,15.4c-0.1,2.2,0.2,4.1,2.5,4.7
			C379.2,107.2,379.8,105.1,378.5,104.8L378.5,104.8z"/>
	</g>
</g>
<g>
	<g>
		<path fill="#FF574A" d="M632.3,250.7c13.1,0.2,26-1.2,38.7-4.1c1.7-0.4,1-3-0.7-2.6c-12.5,2.9-25.2,4.2-38,4
			C630.6,248,630.6,250.7,632.3,250.7L632.3,250.7z"/>
	</g>
</g>
<g>
	<g>
		<path fill="#FF574A" d="M668.5,239.1c3.8,1.3,7.5,2.6,11.3,3.9c-0.3-0.6-0.6-1.1-0.9-1.7c-1.5,4.1-3.1,8.3-4.6,12.4
			c-0.6,1.6,2,2.3,2.6,0.7c1.5-4.1,3.1-8.3,4.6-12.4c0.3-0.7-0.3-1.4-0.9-1.7c-3.8-1.3-7.5-2.6-11.3-3.9
			C667.6,236,666.9,238.6,668.5,239.1L668.5,239.1z"/>
	</g>
</g>
<polyline fill="none" stroke="#6B100E" stroke-miterlimit="10" points="947,250.3 950.8,246.6 947,242.8 "/>
</svg>
