<?xml version="1.0" encoding="utf-8"?>
<!-- Generator: Adobe Illustrator 18.1.1, SVG Export Plug-In . SVG Version: 6.00 Build 0)  -->
<svg version="1.1" id="Capa_1" xmlns="http://www.w3.org/2000/svg" xmlns:xlink="http://www.w3.org/1999/xlink" x="0px" y="0px"
	 viewBox="0 0 1200 506" enable-background="new 0 0 1200 506" xml:space="preserve">
<g>
	<path fill="#772222" d="M732,191.2h15.2c2.1,0,3.7,1.7,3.7,3.7l2,13.1h-26.7l2-13.1C728.3,192.9,729.9,191.2,732,191.2z"/>
	<path fill="#9E180E" d="M694.1,374.2H483.8V241.6c0-3.8,3.1-7,7-7h196.4c3.8,0,7,3.1,7,7V374.2z"/>
	<path fill="#6B100E" d="M720.7,387.2H457.2c-1.1,0-1.9-0.9-1.9-1.9v-10.2c0-1.1,0.9-1.9,1.9-1.9h263.5c1.1,0,1.9,0.9,1.9,1.9v10.2
		C722.6,386.4,721.8,387.2,720.7,387.2z"/>
	<rect x="496.3" y="250.7" fill="#6B100E" width="185.3" height="108"/>
	<polygon fill="#350606" points="661,334 518,334 518,327 526,327 653.3,327 661,327 	"/>
	<path fill="#FF574A" d="M525,63.3h109.5c10.4,0,18.8,8.4,18.8,18.8v251.9H525V63.3z"/>
	<g>
		<rect x="534.8" y="86" fill="#F98D87" width="52.3" height="5.3"/>
		<rect x="534.8" y="131.5" fill="#F98D87" width="52.3" height="5.3"/>
		<rect x="534.8" y="140.5" fill="#F98D87" width="52.3" height="5.3"/>
		<rect x="534.8" y="195.1" fill="#F98D87" width="52.3" height="5.3"/>
		<rect x="544.8" y="231.5" fill="#F98D87" width="63.2" height="5.3"/>
		<rect x="558.1" y="240.6" fill="#F98D87" width="63.2" height="5.3"/>
		<rect x="535.2" y="276.9" fill="#F98D87" width="32.9" height="5.3"/>
		<rect x="535.2" y="286" fill="#F98D87" width="61.7" height="5.3"/>
		<rect x="535.2" y="313.3" fill="#F98D87" width="61.7" height="5.3"/>
		<rect x="561" y="176.9" fill="#F98D87" width="52.3" height="5.3"/>
		<rect x="544.8" y="95.1" fill="#EA7B78" width="52.3" height="5.3"/>
		<rect x="544.8" y="113.3" fill="#EA7B78" width="41" height="5.3"/>
		<rect x="544.8" y="204.2" fill="#EA7B78" width="41" height="5.3"/>
		<rect x="544.8" y="295.1" fill="#EA7B78" width="41" height="5.3"/>
		<rect x="544.8" y="304.2" fill="#EA7B78" width="41" height="5.3"/>
		<rect x="534.8" y="213.3" fill="#EA7B78" width="41" height="5.3"/>
		<rect x="558.1" y="249.7" fill="#EA7B78" width="63.2" height="5.3"/>
		<rect x="558.1" y="258.8" fill="#EA7B78" width="40.3" height="5.3"/>
		<rect x="544.8" y="122.4" fill="#EA7B78" width="41" height="5.3"/>
		<rect x="534.8" y="104.2" fill="#C13030" width="52.3" height="5.3"/>
		<rect x="534.8" y="222.4" fill="#C13030" width="52.3" height="5.3"/>
		<rect x="534.8" y="267.9" fill="#C13030" width="52.3" height="5.3"/>
		<rect x="546.5" y="149.6" fill="#C13030" width="40.7" height="5.3"/>
		<rect x="546.5" y="158.7" fill="#C13030" width="40.7" height="5.3"/>
		<rect x="546.5" y="186" fill="#C13030" width="40.7" height="5.3"/>
		<rect x="561" y="167.8" fill="#C13030" width="40.7" height="5.3"/>
	</g>
	<rect x="664.2" y="381.2" fill="#9E180E" width="27" height="1.2"/>
	<path fill="#9E180E" d="M437.5,306.9h-31.4c-4.1,0-7.4-3.3-7.4-7.4v-69.6c0-4.1,3.3-7.4,7.4-7.4h31.4c4.1,0,7.4,3.3,7.4,7.4v69.6
		C445,303.6,441.6,306.9,437.5,306.9z"/>
	<rect x="401.6" y="231.5" fill="#6B100E" width="40" height="63.7"/>
	<circle fill="#6B100E" cx="421.6" cy="300.5" r="2.8"/>
	<g>
		<circle fill="#6B100E" cx="415.4" cy="227.3" r="0.9"/>
		<path fill="#6B100E" d="M427.9,227.9h-9.8c-0.3,0-0.6-0.3-0.6-0.6l0,0c0-0.3,0.3-0.6,0.6-0.6h9.8c0.3,0,0.6,0.3,0.6,0.6l0,0
			C428.5,227.6,428.3,227.9,427.9,227.9z"/>
	</g>
	<path fill="#772222" d="M747.2,275.1H732c-2.1,0-3.7-1.7-3.7-3.7l-2-13.1h26.7l-2,13.1C750.9,273.4,749.2,275.1,747.2,275.1z"/>
	<path fill="#6B100E" d="M751.8,259h-24.3c-5.2,0-9.5-4.2-9.5-9.5v-33c0-5.2,4.2-9.5,9.5-9.5h24.3c5.2,0,9.5,4.2,9.5,9.5v33
		C761.2,254.7,757,259,751.8,259z"/>
	<path fill="#9E180E" d="M753.9,254h-28.7c-2.6,0-4.7-2.1-4.7-4.7v-32.6c0-2.6,2.1-4.7,4.7-4.7h28.7c2.6,0,4.7,2.1,4.7,4.7v32.6
		C758.7,251.9,756.5,254,753.9,254z"/>
	<rect x="761.2" y="221.1" fill="#772222" width="1.5" height="4.9"/>
	<rect x="761.2" y="230.5" fill="#772222" width="1" height="9.7"/>
	<path fill="#A82222" d="M525,235.7h-21.2v-162c0-5.6,4.6-10.2,10.2-10.2h11V235.7z"/>
	<g>
		<path fill="#FF574A" d="M514.4,63.3h-0.5c-5.6,0-10.1,4.5-10.1,10.1h0C504.1,67.8,508.7,63.3,514.4,63.3z"/>
		<path fill="#FF574A" d="M537.5,63.3h-23.1c5.7,0,10.3,4.5,10.6,10.1h12.5V63.3z"/>
	</g>
	<path fill="none" stroke="#CC7171" stroke-width="5" stroke-linecap="round" stroke-miterlimit="10" d="M751.5,231.9
		c0,0.4,0.1,0.7,0.1,1.1c0,6.6-5.3,11.9-11.9,11.9c-6.6,0-11.9-5.3-11.9-11.9s5.3-11.9,11.9-11.9"/>
	<path fill="#FF574A" d="M421.4,246.7L421.4,246.7c-2,0-3.7-1.7-3.7-3.7l0,0c0-2,1.7-3.7,3.7-3.7l0,0c2,0,3.7,1.7,3.7,3.7l0,0
		C425.1,245,423.5,246.7,421.4,246.7z"/>
	<rect x="406.3" y="251.1" fill="#FF574A" width="30.7" height="7.4"/>
	<rect x="406.3" y="262.9" fill="#FF574A" width="30.7" height="24.5"/>
	<ellipse opacity="0.35" fill="#6B100E" cx="622.6" cy="435.3" rx="84.2" ry="7.3"/>
	<ellipse opacity="0.4" fill="#6B100E" cx="423.1" cy="362.2" rx="23.5" ry="3.7"/>
	<ellipse opacity="0.4" fill="#6B100E" cx="739.6" cy="354.9" rx="23.5" ry="3.7"/>
	<path fill="#6B100E" d="M223.6,245.8c5.8-1.2,7.8-3.1,9-9c0.2-0.9,1.5-0.9,1.7,0c1.2,5.8,3.1,7.8,9,9c0.9,0.2,0.9,1.5,0,1.7
		c-5.8,1.2-7.8,3.1-9,9c-0.2,0.9-1.5,0.9-1.7,0c-1.2-5.8-3.1-7.8-9-9C222.6,247.3,222.6,246,223.6,245.8z"/>
	<path fill="#9E180E" d="M727.4,113c6,0,8.2-1.4,10.7-6.9c0.4-0.9,1.7-0.6,1.7,0.4c0,6,1.4,8.2,6.9,10.7c0.9,0.4,0.6,1.7-0.4,1.7
		c-6,0-8.2,1.4-10.7,6.9c-0.4,0.9-1.7,0.6-1.7-0.4c0-6-1.4-8.2-6.9-10.7C726.1,114.3,726.4,113,727.4,113z"/>
	<path fill="#FF574A" d="M763.2,321.4c8.4-1.8,11.2-4.5,13-13c0.3-1.3,2.2-1.3,2.5,0c1.8,8.4,4.5,11.2,13,13c1.3,0.3,1.3,2.2,0,2.5
		c-8.4,1.8-11.2,4.5-13,13c-0.3,1.3-2.2,1.3-2.5,0c-1.8-8.4-4.5-11.2-13-13C761.9,323.6,761.9,321.7,763.2,321.4z"/>
	<circle fill="#9E180E" cx="191.4" cy="273.2" r="8.5"/>
	<circle fill="#9E180E" cx="800" cy="179.6" r="3"/>
	<circle fill="none" stroke="#9E180E" stroke-width="2" stroke-miterlimit="10" cx="357.4" cy="145.9" r="11.5"/>
	<circle fill="#FF574A" cx="109.4" cy="267.9" r="6"/>
	<path fill="#6B100E" d="M994.7,245.8c-5.8-1.2-7.8-3.1-9-9c-0.2-0.9-1.5-0.9-1.7,0c-1.2,5.8-3.1,7.8-9,9c-0.9,0.2-0.9,1.5,0,1.7
		c5.8,1.2,7.8,3.1,9,9c0.2,0.9,1.5,0.9,1.7,0c1.2-5.8,3.1-7.8,9-9C995.6,247.3,995.6,246,994.7,245.8z"/>
	<circle fill="#9E180E" cx="1026.8" cy="273.2" r="8.5"/>
	<circle fill="#FF574A" cx="1108.8" cy="267.9" r="6"/>
	<circle fill="#9E180E" cx="483.8" cy="204.2" r="9.1"/>
	<rect x="841.9" y="208.5" opacity="0.5" fill="#FF574A" width="80" height="106"/>
	<path fill="#FF574A" d="M834,194v106h61.5l18.5-18.5V194H834z M839.8,277.2c-1.5,0-2.7-1.2-2.7-2.7s1.2-2.7,2.7-2.7
		c1.5,0,2.7,1.2,2.7,2.7S841.3,277.2,839.8,277.2z M839.8,255.2c-1.5,0-2.7-1.2-2.7-2.7s1.2-2.7,2.7-2.7c1.5,0,2.7,1.2,2.7,2.7
		S841.3,255.2,839.8,255.2z M839.8,233.2c-1.5,0-2.7-1.2-2.7-2.7s1.2-2.7,2.7-2.7c1.5,0,2.7,1.2,2.7,2.7S841.3,233.2,839.8,233.2z
		 M839.8,211.2c-1.5,0-2.7-1.2-2.7-2.7s1.2-2.7,2.7-2.7c1.5,0,2.7,1.2,2.7,2.7S841.3,211.2,839.8,211.2z"/>
	<g>
		<g>
			<path fill="#8E1E1E" d="M885.9,271.8c-9.5,6-22.7,8.5-32,0.5c-3.9-3.3-6.7-8.1-6.9-13.3c-0.4-7.9,5.2-11.6,12.4-12.3
				c5.8-0.5,13.1,0.8,15.4,6.9c2.2,5.6-3.6,13.1-9.9,12.2c-7.2-1.1-1.8-11.6,0.5-14.8c3.4-4.7,8.1-8,13.1-10.8
				c6.6-3.6,14.3-7.7,16.3-15.7c1.6-6.7-2.5-13.1-8.5-15.9c-10-4.7-34.4,2.4-27.3,17.2c3.5,7.4,12.8,8.7,20,9
				c6.4,0.2,13.7,0.3,17.9,5.9c2.1,2.8,3,6.3,2.3,9.7c-0.9,4.8-7.5,10.5-11.4,4.3c-1-1.6-3.6-0.1-2.6,1.5c5.2,8.3,15.4,2.6,16.9-5.2
				c2.1-10.3-6.4-17.5-15.8-18.8c-5.9-0.8-12,0.1-17.6-2c-8.7-3.3-10.3-12.2-2-17.4c5.8-3.6,14.5-4.3,20.3-0.3
				c9.3,6.4,3.7,16.7-3.8,21.5c-9.2,5.9-19.4,10.1-23.5,21.1c-1.2,3.2-2.7,8.5-0.4,11.6c2.4,3.2,7.6,2.3,10.8,1
				c7.8-3.3,11.1-12.6,5-19.2c-6.2-6.7-20.9-7.1-27.4-0.5c-7.9,8-2.5,21.3,5.2,27.2c10.3,7.9,24.2,5.6,34.5-1
				C889.1,273.3,887.6,270.7,885.9,271.8L885.9,271.8z"/>
		</g>
	</g>
	<polygon fill="#E54C45" points="895.5,281.5 913.5,281.5 895.5,299.5 	"/>
	<path fill="#6B100E" d="M352.3,326.2h-66.8c-2.8,0-5.1-2.3-5.1-5.1V251c0-2.8,2.3-5.1,5.1-5.1h66.8c2.8,0,5.1,2.3,5.1,5.1v70.1
		C357.4,323.9,355.1,326.2,352.3,326.2z"/>
	<text transform="matrix(1 0 0 1 305.4048 298.9341)" fill="#FF3939" font-family="'MaterialIcons-Regular'" font-size="27">thumb_up</text>
</g>
</svg>
